STARTFONT 2.1
FONT -gbdfed-Unknown-Medium-R-Normal--11-80-96-96-P-70-FontSpecific-0
SIZE 8 96 96
FONTBOUNDINGBOX 7 10 0 -2
STARTPROPERTIES 9
POINT_SIZE 80
PIXEL_SIZE 11
RESOLUTION_X 96
RESOLUTION_Y 96
FONT_ASCENT 9
FONT_DESCENT 2
AVERAGE_WIDTH 70
SPACING "P"
_GBDFED_INFO "Edited with gbdfed 1.6."
ENDPROPERTIES
CHARS 112
STARTCHAR A
ENCODING 1
SWIDTH 468 0
DWIDTH 5 0
BBX 5 7 0 0
BITMAP
20
50
88
88
F8
88
88
ENDCHAR
STARTCHAR B
ENCODING 2
SWIDTH 468 0
DWIDTH 5 0
BBX 5 7 0 0
BITMAP
F0
88
88
F0
88
88
F0
ENDCHAR
STARTCHAR C
ENCODING 3
SWIDTH 468 0
DWIDTH 5 0
BBX 5 6 0 0
BITMAP
70
88
80
80
88
70
ENDCHAR
STARTCHAR D
ENCODING 4
SWIDTH 468 0
DWIDTH 5 0
BBX 5 7 0 0
BITMAP
F0
88
88
88
88
88
F0
ENDCHAR
STARTCHAR D
ENCODING 5
SWIDTH 468 0
DWIDTH 5 0
BBX 5 7 0 0
BITMAP
F8
80
80
F8
80
80
F8
ENDCHAR
STARTCHAR F
ENCODING 6
SWIDTH 468 0
DWIDTH 5 0
BBX 5 7 0 0
BITMAP
F8
80
80
F0
80
80
80
ENDCHAR
STARTCHAR G
ENCODING 7
SWIDTH 468 0
DWIDTH 5 0
BBX 5 7 0 0
BITMAP
70
88
80
98
88
88
70
ENDCHAR
STARTCHAR H
ENCODING 8
SWIDTH 468 0
DWIDTH 5 0
BBX 5 7 0 0
BITMAP
88
88
88
F8
88
88
88
ENDCHAR
STARTCHAR I
ENCODING 9
SWIDTH 281 0
DWIDTH 3 0
BBX 3 7 1 0
BITMAP
E0
40
40
40
40
40
E0
ENDCHAR
STARTCHAR J
ENCODING 10
SWIDTH 468 0
DWIDTH 5 0
BBX 5 7 0 0
BITMAP
18
08
08
08
08
88
70
ENDCHAR
STARTCHAR K
ENCODING 11
SWIDTH 468 0
DWIDTH 5 0
BBX 5 7 0 0
BITMAP
88
90
A0
C0
A0
90
88
ENDCHAR
STARTCHAR L
ENCODING 12
SWIDTH 468 0
DWIDTH 5 0
BBX 5 7 0 0
BITMAP
80
80
80
80
80
80
F8
ENDCHAR
STARTCHAR M
ENCODING 13
SWIDTH 656 0
DWIDTH 7 0
BBX 7 7 0 0
BITMAP
82
C6
AA
92
82
82
82
ENDCHAR
STARTCHAR N
ENCODING 14
SWIDTH 562 0
DWIDTH 6 0
BBX 6 7 0 0
BITMAP
84
C4
A4
94
8C
84
84
ENDCHAR
STARTCHAR O
ENCODING 15
SWIDTH 468 0
DWIDTH 5 0
BBX 5 7 0 0
BITMAP
70
88
88
88
88
88
70
ENDCHAR
STARTCHAR P
ENCODING 16
SWIDTH 468 0
DWIDTH 5 0
BBX 5 7 0 0
BITMAP
F0
88
88
F0
80
80
80
ENDCHAR
STARTCHAR Q
ENCODING 17
SWIDTH 468 0
DWIDTH 5 0
BBX 5 7 0 0
BITMAP
70
88
88
88
A8
98
78
ENDCHAR
STARTCHAR R
ENCODING 18
SWIDTH 468 0
DWIDTH 5 0
BBX 5 7 0 0
BITMAP
F0
88
88
F0
A0
90
88
ENDCHAR
STARTCHAR S
ENCODING 19
SWIDTH 468 0
DWIDTH 5 0
BBX 5 7 0 0
BITMAP
70
88
80
70
08
88
70
ENDCHAR
STARTCHAR T
ENCODING 20
SWIDTH 468 0
DWIDTH 5 0
BBX 5 7 0 0
BITMAP
F8
20
20
20
20
20
20
ENDCHAR
STARTCHAR U
ENCODING 21
SWIDTH 468 0
DWIDTH 5 0
BBX 5 7 0 0
BITMAP
88
88
88
88
88
88
70
ENDCHAR
STARTCHAR V
ENCODING 22
SWIDTH 468 0
DWIDTH 5 0
BBX 5 7 0 0
BITMAP
88
88
88
88
88
50
20
ENDCHAR
STARTCHAR W
ENCODING 23
SWIDTH 656 0
DWIDTH 7 0
BBX 7 7 0 0
BITMAP
92
92
92
92
92
92
6C
ENDCHAR
STARTCHAR X
ENCODING 24
SWIDTH 468 0
DWIDTH 5 0
BBX 5 7 0 0
BITMAP
88
88
50
20
50
88
88
ENDCHAR
STARTCHAR Y
ENCODING 25
SWIDTH 468 0
DWIDTH 5 0
BBX 5 7 0 0
BITMAP
88
88
50
20
20
20
20
ENDCHAR
STARTCHAR Z
ENCODING 26
SWIDTH 468 0
DWIDTH 5 0
BBX 5 7 0 0
BITMAP
F8
08
10
20
40
80
F8
ENDCHAR
STARTCHAR [
ENCODING 27
SWIDTH 187 0
DWIDTH 2 0
BBX 2 7 2 0
BITMAP
C0
80
80
80
80
80
C0
ENDCHAR
STARTCHAR \
ENCODING 28
SWIDTH 656 0
DWIDTH 7 0
BBX 7 7 0 0
BITMAP
80
40
20
10
08
04
02
ENDCHAR
STARTCHAR ]
ENCODING 29
SWIDTH 187 0
DWIDTH 2 0
BBX 2 7 1 0
BITMAP
C0
40
40
40
40
40
C0
ENDCHAR
STARTCHAR ^
ENCODING 30
SWIDTH 468 0
DWIDTH 5 0
BBX 5 7 0 0
BITMAP
20
70
A8
20
20
20
20
ENDCHAR
STARTCHAR _
ENCODING 31
SWIDTH 468 0
DWIDTH 5 0
BBX 5 1 0 0
BITMAP
F8
ENDCHAR
STARTCHAR a
ENCODING 33
SWIDTH 468 0
DWIDTH 5 0
BBX 5 5 0 0
BITMAP
78
88
88
88
78
ENDCHAR
STARTCHAR b
ENCODING 34
SWIDTH 468 0
DWIDTH 5 0
BBX 5 7 0 0
BITMAP
80
80
F0
88
88
88
F0
ENDCHAR
STARTCHAR c
ENCODING 35
SWIDTH 468 0
DWIDTH 5 0
BBX 5 5 0 0
BITMAP
70
88
80
88
70
ENDCHAR
STARTCHAR d
ENCODING 36
SWIDTH 468 0
DWIDTH 5 0
BBX 5 7 0 0
BITMAP
08
08
78
88
88
88
78
ENDCHAR
STARTCHAR e
ENCODING 37
SWIDTH 468 0
DWIDTH 5 0
BBX 5 5 0 0
BITMAP
70
88
F8
80
70
ENDCHAR
STARTCHAR f
ENCODING 38
SWIDTH 375 0
DWIDTH 4 0
BBX 4 8 1 0
BITMAP
20
50
40
E0
40
40
40
E0
ENDCHAR
STARTCHAR g
ENCODING 39
SWIDTH 468 0
DWIDTH 5 0
BBX 5 7 0 -2
BITMAP
78
88
88
88
78
08
70
ENDCHAR
STARTCHAR char40
ENCODING 40
SWIDTH 468 0
DWIDTH 5 0
BBX 5 7 0 0
BITMAP
80
80
F0
88
88
88
88
ENDCHAR
STARTCHAR i
ENCODING 41
SWIDTH 281 0
DWIDTH 3 0
BBX 2 7 1 0
BITMAP
40
00
C0
40
40
40
40
ENDCHAR
STARTCHAR char42
ENCODING 42
SWIDTH 281 0
DWIDTH 3 0
BBX 3 8 0 -1
BITMAP
20
00
60
20
20
20
A0
40
ENDCHAR
STARTCHAR k
ENCODING 43
SWIDTH 375 0
DWIDTH 4 0
BBX 4 7 1 0
BITMAP
80
80
90
A0
C0
A0
90
ENDCHAR
STARTCHAR l
ENCODING 44
SWIDTH 281 0
DWIDTH 3 0
BBX 3 7 1 0
BITMAP
C0
40
40
40
40
40
E0
ENDCHAR
STARTCHAR m
ENCODING 45
SWIDTH 656 0
DWIDTH 7 0
BBX 7 5 0 0
BITMAP
EC
92
92
92
92
ENDCHAR
STARTCHAR n
ENCODING 46
SWIDTH 468 0
DWIDTH 5 0
BBX 5 5 0 0
BITMAP
F0
88
88
88
88
ENDCHAR
STARTCHAR o
ENCODING 47
SWIDTH 468 0
DWIDTH 5 0
BBX 5 5 0 0
BITMAP
70
88
88
88
70
ENDCHAR
STARTCHAR p
ENCODING 48
SWIDTH 468 0
DWIDTH 5 0
BBX 5 7 0 -2
BITMAP
F0
88
88
88
F0
80
80
ENDCHAR
STARTCHAR q
ENCODING 49
SWIDTH 468 0
DWIDTH 5 0
BBX 5 7 0 -2
BITMAP
78
88
88
88
78
08
08
ENDCHAR
STARTCHAR r
ENCODING 50
SWIDTH 375 0
DWIDTH 4 0
BBX 4 5 0 0
BITMAP
B0
C0
80
80
80
ENDCHAR
STARTCHAR s
ENCODING 51
SWIDTH 468 0
DWIDTH 5 0
BBX 5 5 0 0
BITMAP
78
80
70
08
F0
ENDCHAR
STARTCHAR t
ENCODING 52
SWIDTH 281 0
DWIDTH 3 0
BBX 3 6 1 0
BITMAP
40
E0
40
40
40
20
ENDCHAR
STARTCHAR u
ENCODING 53
SWIDTH 468 0
DWIDTH 5 0
BBX 5 5 0 0
BITMAP
88
88
88
88
78
ENDCHAR
STARTCHAR v
ENCODING 54
SWIDTH 468 0
DWIDTH 5 0
BBX 5 5 0 0
BITMAP
88
88
88
50
20
ENDCHAR
STARTCHAR w
ENCODING 55
SWIDTH 656 0
DWIDTH 7 0
BBX 7 5 0 0
BITMAP
92
92
92
92
6C
ENDCHAR
STARTCHAR x
ENCODING 56
SWIDTH 468 0
DWIDTH 5 0
BBX 5 5 0 0
BITMAP
88
50
20
50
88
ENDCHAR
STARTCHAR y
ENCODING 57
SWIDTH 468 0
DWIDTH 5 0
BBX 5 7 0 -2
BITMAP
88
88
88
88
78
08
70
ENDCHAR
STARTCHAR z
ENCODING 58
SWIDTH 468 0
DWIDTH 5 0
BBX 5 5 0 0
BITMAP
F8
10
20
40
F8
ENDCHAR
STARTCHAR {
ENCODING 59
SWIDTH 281 0
DWIDTH 3 0
BBX 3 7 1 0
BITMAP
60
40
40
80
40
40
60
ENDCHAR
STARTCHAR |
ENCODING 60
SWIDTH 93 0
DWIDTH 1 0
BBX 1 7 2 0
BITMAP
80
80
80
80
80
80
80
ENDCHAR
STARTCHAR }
ENCODING 61
SWIDTH 468 0
DWIDTH 5 0
BBX 3 7 1 0
BITMAP
C0
40
40
20
40
40
C0
ENDCHAR
STARTCHAR ~
ENCODING 62
SWIDTH 656 0
DWIDTH 7 0
BBX 7 3 0 2
BITMAP
60
92
0C
ENDCHAR
STARTCHAR alpha
ENCODING 65
SWIDTH 562 0
DWIDTH 6 0
BBX 6 5 0 0
BITMAP
64
94
88
94
64
ENDCHAR
STARTCHAR beta
ENCODING 66
SWIDTH 468 0
DWIDTH 5 0
BBX 5 7 0 -1
BITMAP
70
88
88
F0
88
F0
80
ENDCHAR
STARTCHAR eta
ENCODING 67
SWIDTH 468 0
DWIDTH 5 0
BBX 5 7 0 -2
BITMAP
F0
88
88
88
88
08
08
ENDCHAR
STARTCHAR 00
ENCODING 80
SWIDTH 656 0
DWIDTH 7 0
BBX 7 7 0 0
BITMAP
7C
C6
D6
D6
D6
C6
7C
ENDCHAR
STARTCHAR 01
ENCODING 81
SWIDTH 656 0
DWIDTH 7 0
BBX 7 7 0 0
BITMAP
7C
EE
CE
EE
EE
EE
7C
ENDCHAR
STARTCHAR 02
ENCODING 82
SWIDTH 656 0
DWIDTH 7 0
BBX 7 7 0 0
BITMAP
7C
C6
F6
C6
DE
C6
7C
ENDCHAR
STARTCHAR 03
ENCODING 83
SWIDTH 656 0
DWIDTH 7 0
BBX 7 7 0 0
BITMAP
7C
C6
F6
C6
F6
C6
7C
ENDCHAR
STARTCHAR 04
ENCODING 84
SWIDTH 656 0
DWIDTH 7 0
BBX 7 7 0 0
BITMAP
7C
F6
E6
D6
C6
F6
7C
ENDCHAR
STARTCHAR 05
ENCODING 85
SWIDTH 656 0
DWIDTH 7 0
BBX 7 7 0 0
BITMAP
7C
C6
DE
C6
F6
C6
7C
ENDCHAR
STARTCHAR 06
ENCODING 86
SWIDTH 656 0
DWIDTH 7 0
BBX 7 7 0 0
BITMAP
7C
C6
DE
C6
D6
C6
7C
ENDCHAR
STARTCHAR 07
ENCODING 87
SWIDTH 656 0
DWIDTH 7 0
BBX 7 7 0 0
BITMAP
7C
C6
F6
F6
EE
EE
7C
ENDCHAR
STARTCHAR 08
ENCODING 88
SWIDTH 656 0
DWIDTH 7 0
BBX 7 7 0 0
BITMAP
7C
C6
D6
C6
D6
C6
7C
ENDCHAR
STARTCHAR 09
ENCODING 89
SWIDTH 656 0
DWIDTH 7 0
BBX 7 7 0 0
BITMAP
7C
C6
D6
C6
F6
C6
7C
ENDCHAR
STARTCHAR quad
ENCODING 90
SWIDTH 468 0
DWIDTH 5 0
BBX 5 7 0 0
BITMAP
F8
F8
F8
F8
F8
F8
F8
ENDCHAR
STARTCHAR larrow
ENCODING 91
SWIDTH 656 0
DWIDTH 7 0
BBX 7 5 0 1
BITMAP
20
40
FE
40
20
ENDCHAR
STARTCHAR wack
ENCODING 92
SWIDTH 468 0
DWIDTH 5 0
BBX 5 7 0 0
BITMAP
A8
50
A8
50
A8
50
A8
ENDCHAR
STARTCHAR rarrow
ENCODING 93
SWIDTH 656 0
DWIDTH 7 0
BBX 7 5 0 1
BITMAP
08
04
FE
04
08
ENDCHAR
STARTCHAR darrow
ENCODING 94
SWIDTH 468 0
DWIDTH 5 0
BBX 5 7 0 0
BITMAP
20
20
20
20
A8
70
20
ENDCHAR
STARTCHAR ball
ENCODING 95
SWIDTH 656 0
DWIDTH 7 0
BBX 7 7 0 0
BITMAP
7C
FE
FE
FE
FE
FE
7C
ENDCHAR
STARTCHAR char96
ENCODING 96
SWIDTH 281 0
DWIDTH 3 0
BBX 0 0 0 0
BITMAP
ENDCHAR
STARTCHAR !
ENCODING 97
SWIDTH 93 0
DWIDTH 1 0
BBX 1 7 2 0
BITMAP
80
80
80
80
80
00
80
ENDCHAR
STARTCHAR "
ENCODING 98
SWIDTH 281 0
DWIDTH 3 0
BBX 3 2 1 5
BITMAP
A0
A0
ENDCHAR
STARTCHAR #
ENCODING 99
SWIDTH 468 0
DWIDTH 5 0
BBX 5 6 0 0
BITMAP
50
F8
50
50
F8
50
ENDCHAR
STARTCHAR $
ENCODING 100
SWIDTH 468 0
DWIDTH 5 0
BBX 5 7 0 -1
BITMAP
20
78
A0
70
28
F0
20
ENDCHAR
STARTCHAR %
ENCODING 101
SWIDTH 468 0
DWIDTH 5 0
BBX 5 5 0 0
BITMAP
C8
D0
20
58
98
ENDCHAR
STARTCHAR &
ENCODING 102
SWIDTH 468 0
DWIDTH 5 0
BBX 5 7 0 0
BITMAP
70
88
80
40
A8
90
68
ENDCHAR
STARTCHAR '
ENCODING 103
SWIDTH 93 0
DWIDTH 1 0
BBX 1 2 2 5
BITMAP
80
80
ENDCHAR
STARTCHAR (
ENCODING 104
SWIDTH 187 0
DWIDTH 2 0
BBX 4 7 0 0
BITMAP
10
20
20
20
20
20
10
ENDCHAR
STARTCHAR )
ENCODING 105
SWIDTH 375 0
DWIDTH 4 0
BBX 2 7 2 0
BITMAP
80
40
40
40
40
40
80
ENDCHAR
STARTCHAR *
ENCODING 106
SWIDTH 468 0
DWIDTH 5 0
BBX 5 5 0 1
BITMAP
88
50
F8
50
88
ENDCHAR
STARTCHAR +
ENCODING 107
SWIDTH 468 0
DWIDTH 5 0
BBX 5 5 0 1
BITMAP
20
20
F8
20
20
ENDCHAR
STARTCHAR ,
ENCODING 108
SWIDTH 187 0
DWIDTH 2 0
BBX 2 3 1 -1
BITMAP
40
40
80
ENDCHAR
STARTCHAR -
ENCODING 109
SWIDTH 468 0
DWIDTH 5 0
BBX 5 1 0 3
BITMAP
F8
ENDCHAR
STARTCHAR .
ENCODING 110
SWIDTH 187 0
DWIDTH 2 0
BBX 2 2 1 0
BITMAP
C0
C0
ENDCHAR
STARTCHAR /
ENCODING 111
SWIDTH 656 0
DWIDTH 7 0
BBX 7 7 0 0
BITMAP
02
04
08
10
20
40
80
ENDCHAR
STARTCHAR 0
ENCODING 112
SWIDTH 468 0
DWIDTH 5 0
BBX 5 7 0 0
BITMAP
70
88
88
A8
88
88
70
ENDCHAR
STARTCHAR 1
ENCODING 113
SWIDTH 281 0
DWIDTH 3 0
BBX 3 7 1 0
BITMAP
40
C0
40
40
40
40
E0
ENDCHAR
STARTCHAR 2
ENCODING 114
SWIDTH 468 0
DWIDTH 5 0
BBX 5 7 0 0
BITMAP
70
88
08
10
20
40
F8
ENDCHAR
STARTCHAR 3
ENCODING 115
SWIDTH 468 0
DWIDTH 5 0
BBX 5 7 0 0
BITMAP
70
88
08
30
08
88
70
ENDCHAR
STARTCHAR 4
ENCODING 116
SWIDTH 468 0
DWIDTH 5 0
BBX 5 7 0 0
BITMAP
10
30
50
90
F8
10
10
ENDCHAR
STARTCHAR 5
ENCODING 117
SWIDTH 468 0
DWIDTH 5 0
BBX 5 7 0 0
BITMAP
F8
80
F0
08
08
88
70
ENDCHAR
STARTCHAR 6
ENCODING 118
SWIDTH 468 0
DWIDTH 5 0
BBX 5 7 0 0
BITMAP
70
80
F0
88
88
88
70
ENDCHAR
STARTCHAR 7
ENCODING 119
SWIDTH 468 0
DWIDTH 5 0
BBX 5 7 0 0
BITMAP
F8
08
08
10
20
20
20
ENDCHAR
STARTCHAR 8
ENCODING 120
SWIDTH 468 0
DWIDTH 5 0
BBX 5 7 0 0
BITMAP
70
88
88
70
88
88
70
ENDCHAR
STARTCHAR 9
ENCODING 121
SWIDTH 468 0
DWIDTH 5 0
BBX 5 7 0 0
BITMAP
70
88
88
88
78
10
60
ENDCHAR
STARTCHAR :
ENCODING 122
SWIDTH 187 0
DWIDTH 2 0
BBX 2 5 1 0
BITMAP
C0
C0
00
C0
C0
ENDCHAR
STARTCHAR ;
ENCODING 123
SWIDTH 187 0
DWIDTH 2 0
BBX 2 6 1 -1
BITMAP
C0
C0
00
C0
40
80
ENDCHAR
STARTCHAR <
ENCODING 124
SWIDTH 375 0
DWIDTH 4 0
BBX 4 7 1 0
BITMAP
10
20
40
80
40
20
10
ENDCHAR
STARTCHAR =
ENCODING 125
SWIDTH 468 0
DWIDTH 5 0
BBX 5 3 0 2
BITMAP
F8
00
F8
ENDCHAR
STARTCHAR >
ENCODING 126
SWIDTH 375 0
DWIDTH 4 0
BBX 4 7 0 0
BITMAP
80
40
20
10
20
40
80
ENDCHAR
STARTCHAR ?
ENCODING 127
SWIDTH 468 0
DWIDTH 5 0
BBX 5 7 0 0
BITMAP
70
88
88
10
20
00
20
ENDCHAR
ENDFONT
